<svg xmlns="http://www.w3.org/2000/svg" xmlns:xlink="http://www.w3.org/1999/xlink" width="25" height="24" viewBox="0 0 25 24">
  <defs>
    <radialGradient id="radial-gradient" cx="0.28" cy="0.971" r="1.196" gradientTransform="matrix(0.039, -0.999, 0.883, 0.034, -0.588, 1.217)" gradientUnits="objectBoundingBox">
      <stop offset="0" stop-color="#ffde8f"/>
      <stop offset="0.533" stop-color="red"/>
      <stop offset="1" stop-color="#3a00ff"/>
    </radialGradient>
  </defs>
  <g id="Group_62" data-name="Group 62" transform="translate(-955 -6170)">
    <rect id="Rectangle_63" data-name="Rectangle 63" width="25" height="24" rx="5" transform="translate(955 6170)" fill="url(#radial-gradient)"/>
    <g id="Group_57" data-name="Group 57" transform="translate(955.825 6170.825)">
      <path id="Path_54" data-name="Path 54" d="M13.294,10.506a2.788,2.788,0,1,0,2.788,2.788A2.791,2.791,0,0,0,13.294,10.506Zm0-1.859a4.647,4.647,0,1,1-4.647,4.647A4.649,4.649,0,0,1,13.294,8.647Zm6.041-.232a1.162,1.162,0,1,1-1.162-1.162A1.162,1.162,0,0,1,19.336,8.415ZM13.294,5.859c-2.3,0-2.677,0-3.746.056a4.97,4.97,0,0,0-1.668.307,2.669,2.669,0,0,0-1,.655,2.633,2.633,0,0,0-.655,1,5.017,5.017,0,0,0-.307,1.668c-.051,1.027-.056,1.385-.056,3.746,0,2.3,0,2.677.056,3.746a4.993,4.993,0,0,0,.307,1.668,2.89,2.89,0,0,0,1.654,1.659,5.071,5.071,0,0,0,1.673.307c1.027.051,1.385.056,3.746.056,2.3,0,2.677,0,3.746-.056a4.993,4.993,0,0,0,1.668-.307,2.715,2.715,0,0,0,1-.651,2.667,2.667,0,0,0,.655-1,5.071,5.071,0,0,0,.307-1.673c.051-1.027.056-1.385.056-3.746,0-2.3,0-2.677-.056-3.746a4.993,4.993,0,0,0-.307-1.668,2.915,2.915,0,0,0-1.659-1.659,5.017,5.017,0,0,0-1.668-.307C16.013,5.864,15.655,5.859,13.294,5.859Zm0-1.859c2.523,0,2.839.009,3.829.056a6.822,6.822,0,0,1,2.259.432A4.774,4.774,0,0,1,22.1,7.207a6.917,6.917,0,0,1,.432,2.259c.042.99.056,1.306.056,3.829s-.009,2.839-.056,3.829a6.943,6.943,0,0,1-.432,2.259,4.471,4.471,0,0,1-1.073,1.645A4.548,4.548,0,0,1,19.382,22.1a6.917,6.917,0,0,1-2.259.432c-.99.042-1.306.056-3.829.056s-2.839-.009-3.829-.056A6.943,6.943,0,0,1,7.207,22.1a4.774,4.774,0,0,1-2.719-2.719,6.8,6.8,0,0,1-.432-2.259C4.014,16.134,4,15.818,4,13.294s.009-2.839.056-3.829a6.8,6.8,0,0,1,.432-2.259A4.471,4.471,0,0,1,5.561,5.561,4.509,4.509,0,0,1,7.207,4.488a6.8,6.8,0,0,1,2.259-.432C10.455,4.014,10.771,4,13.294,4Z" transform="translate(-2.141 -2.141)" fill="#fff"/>
      <path id="Path_55" data-name="Path 55" d="M0,0H22.306V22.306H0Z" fill="none"/>
    </g>
  </g>
</svg>
