<svg xmlns="http://www.w3.org/2000/svg" width="21" height="21" viewBox="0 0 21 21">
  <g id="Group_119" data-name="Group 119" transform="translate(-619 -6183)">
    <g id="Rectangle_58" data-name="Rectangle 58" transform="translate(619 6183)" fill="rgba(255,255,255,0)" stroke="#707070" stroke-width="1">
      <rect width="21" height="21" rx="5" stroke="none"/>
      <rect x="0.5" y="0.5" width="20" height="20" rx="4.5" fill="none"/>
    </g>
    <g id="Group_53" data-name="Group 53" transform="translate(623 6187)">
      <path id="Path_47" data-name="Path 47" d="M9.179,7.579c-.158-.076-.928-.456-1.07-.509s-.248-.079-.353.079-.4.509-.5.614-.182.116-.34.04a4.34,4.34,0,0,1-1.26-.777,4.694,4.694,0,0,1-.87-1.086c-.092-.155-.011-.242.069-.319s.155-.184.235-.274a1.067,1.067,0,0,0,.155-.264.286.286,0,0,0-.013-.274c-.04-.076-.351-.849-.482-1.162S4.5,3.384,4.4,3.379s-.2-.005-.3-.005a.577.577,0,0,0-.416.2,1.759,1.759,0,0,0-.548,1.307A3.04,3.04,0,0,0,3.777,6.5,6.95,6.95,0,0,0,6.451,8.86a8.892,8.892,0,0,0,.893.332,2.16,2.16,0,0,0,.986.061,1.61,1.61,0,0,0,1.057-.746,1.292,1.292,0,0,0,.092-.743C9.44,7.7,9.335,7.658,9.179,7.579Zm-2.859,3.9h0a5.186,5.186,0,0,1-2.654-.727l-.19-.111L1.5,11.161l.527-1.924-.124-.2a5.209,5.209,0,1,1,4.412,2.44ZM10.755,1.84A6.27,6.27,0,0,0,.888,9.4L0,12.65l3.323-.872a6.238,6.238,0,0,0,3,.764h0a6.271,6.271,0,0,0,4.433-10.7" fill="#707070" fill-rule="evenodd"/>
      <path id="Path_48" data-name="Path 48" d="M0,0H12.65V12.65H0Z" fill="none"/>
    </g>
  </g>
</svg>
