<svg xmlns="http://www.w3.org/2000/svg" width="30.54" height="30.54" viewBox="0 0 30.54 30.54">
  <g id="Group_61" data-name="Group 61" transform="translate(-960 -6125)">
    <rect id="Rectangle_62" data-name="Rectangle 62" width="14" height="14" transform="translate(969 6134)" fill="#fff"/>
    <g id="Group_58" data-name="Group 58" transform="translate(960 6125)">
      <path id="Path_57" data-name="Path 57" d="M28.871,11.181a39.652,39.652,0,0,1,.579,7,39.652,39.652,0,0,1-.579,7A3.6,3.6,0,0,1,26.4,27.756c-2.176.6-9.677.6-9.677.6s-7.5,0-9.677-.6a3.585,3.585,0,0,1-2.469-2.577,39.652,39.652,0,0,1-.579-7,39.652,39.652,0,0,1,.579-7A3.6,3.6,0,0,1,7.048,8.6C9.224,8,16.725,8,16.725,8s7.5,0,9.677.6A3.585,3.585,0,0,1,28.871,11.181ZM14.18,22.634l7.635-4.454L14.18,13.726Z" transform="translate(-1.455 -2.91)" fill="red"/>
      <path id="Path_58" data-name="Path 58" d="M0,0H30.54V30.54H0Z" fill="none"/>
    </g>
  </g>
</svg>
