<svg xmlns="http://www.w3.org/2000/svg" xmlns:xlink="http://www.w3.org/1999/xlink" width="300" height="140" viewBox="0 0 300 140">
  <defs>
    <linearGradient id="linear-gradient" x1="0.044" y1="0.034" x2="1" y2="0.962" gradientUnits="objectBoundingBox">
      <stop offset="0" stop-color="#50d890"/>
      <stop offset="1" stop-color="#4f98ca"/>
    </linearGradient>
  </defs>
  <g id="Group_20" data-name="Group 20" transform="translate(-704 -2266)">
    <g id="Layer_2" data-name="Layer 2" transform="translate(784.161 2266)">
      <g id="invisible_box" data-name="invisible box" transform="translate(0)">
        <rect id="Rectangle_33" data-name="Rectangle 33" width="140" height="140" transform="translate(-0.161)" fill="none"/>
      </g>
      <g id="Layer_6" data-name="Layer 6" transform="translate(5.679 17.563)">
        <g id="Group_16" data-name="Group 16">
          <path id="Path_20" data-name="Path 20" d="M95.675,6H93.919L6.1,31.759A5.854,5.854,0,0,0,2,37.614V63.959a6.44,6.44,0,0,0,4.1,5.854L19.86,73.619l4.684,30.15a8.489,8.489,0,0,0,8.489,7.611H46.2a9.367,9.367,0,0,0,6.44-2.927,9.66,9.66,0,0,0,1.756-7.611l-3.22-17.856L93.919,95.573h1.756a5.854,5.854,0,0,0,5.854-5.854V11.854A5.854,5.854,0,0,0,95.675,6ZM42.4,99.671H35.667L32.154,77.424,38.3,79.18ZM89.82,82.108,13.713,59.568V42L89.82,19.758Z" transform="translate(-1.998 -6)" fill="url(#linear-gradient)"/>
          <path id="Path_21" data-name="Path 21" d="M43.887,26.888a4.391,4.391,0,0,0,2.634-.585L58.23,20.448A5.891,5.891,0,1,0,52.961,9.91L41.252,15.765a5.854,5.854,0,0,0-2.634,7.9,6.147,6.147,0,0,0,5.269,3.22Z" transform="translate(67.354 0.335)" fill="url(#linear-gradient)"/>
          <path id="Path_22" data-name="Path 22" d="M58.23,33.852,46.521,28a6.147,6.147,0,0,0-7.9,2.342,5.854,5.854,0,0,0,2.634,7.9L52.961,44.1a4.391,4.391,0,0,0,2.634.585,6.147,6.147,0,0,0,5.269-3.22,5.562,5.562,0,0,0-2.635-7.611Z" transform="translate(67.354 35.23)" fill="url(#linear-gradient)"/>
          <path id="Path_23" data-name="Path 23" d="M43.854,31.009H55.563a5.854,5.854,0,1,0,0-11.709H43.854a5.854,5.854,0,0,0,0,11.709Z" transform="translate(67.386 19.632)" fill="url(#linear-gradient)"/>
        </g>
      </g>
    </g>
    <g id="Layer_2-2" data-name="Layer 2" transform="translate(704 2304.698)">
      <g id="invisible_box-2" data-name="invisible box" transform="translate(0 0)">
        <rect id="Rectangle_33-2" data-name="Rectangle 33" width="63" height="62" transform="translate(0 0.302)" fill="none"/>
      </g>
      <g id="Layer_6-2" data-name="Layer 6" transform="translate(2.607 8.084)">
        <g id="Group_16-2" data-name="Group 16">
          <path id="Path_20-2" data-name="Path 20" d="M43.763,6H42.98L3.828,17.485A2.61,2.61,0,0,0,2,20.095V31.841a2.871,2.871,0,0,0,1.827,2.61l6.134,1.7L12.05,49.59a3.785,3.785,0,0,0,3.785,3.393h5.873a4.176,4.176,0,0,0,2.871-1.305,4.307,4.307,0,0,0,.783-3.393l-1.436-7.961L42.98,45.935h.783a2.61,2.61,0,0,0,2.61-2.61V8.61A2.61,2.61,0,0,0,43.763,6ZM20.011,47.763h-3l-1.566-9.919,2.741.783Zm21.142-7.83L7.221,29.883v-7.83l33.932-9.919Z" transform="translate(-1.998 -6)" fill="#f9f9f9"/>
          <path id="Path_21-2" data-name="Path 21" d="M40.615,17.134a1.958,1.958,0,0,0,1.175-.261l5.22-2.61a2.626,2.626,0,1,0-2.349-4.7l-5.22,2.61A2.61,2.61,0,0,0,38.266,15.7,2.741,2.741,0,0,0,40.615,17.134Z" transform="translate(8.981 -4.997)" fill="#f9f9f9"/>
          <path id="Path_22-2" data-name="Path 22" d="M47.01,30.273l-5.22-2.61a2.741,2.741,0,0,0-3.524,1.044,2.61,2.61,0,0,0,1.175,3.524l5.22,2.61a1.958,1.958,0,0,0,1.175.261,2.741,2.741,0,0,0,2.349-1.436,2.48,2.48,0,0,0-1.175-3.393Z" transform="translate(8.981 0.527)" fill="#f9f9f9"/>
          <path id="Path_23-2" data-name="Path 23" d="M40.61,24.52h5.22a2.61,2.61,0,0,0,0-5.22H40.61a2.61,2.61,0,0,0,0,5.22Z" transform="translate(8.986 -1.942)" fill="#f9f9f9"/>
        </g>
      </g>
    </g>
    <g id="Layer_2-3" data-name="Layer 2" transform="translate(941.718 2304.698)">
      <g id="invisible_box-3" data-name="invisible box" transform="translate(0 0)">
        <rect id="Rectangle_33-3" data-name="Rectangle 33" width="62" height="62" transform="translate(0.282 0.302)" fill="none"/>
      </g>
      <g id="Layer_6-3" data-name="Layer 6" transform="translate(2.776 8.084)">
        <g id="Group_16-3" data-name="Group 16">
          <path id="Path_20-3" data-name="Path 20" d="M43.763,6H42.98L3.828,17.485A2.61,2.61,0,0,0,2,20.095V31.841a2.871,2.871,0,0,0,1.827,2.61l6.134,1.7L12.05,49.59a3.785,3.785,0,0,0,3.785,3.393h5.873a4.176,4.176,0,0,0,2.871-1.305,4.307,4.307,0,0,0,.783-3.393l-1.436-7.961L42.98,45.935h.783a2.61,2.61,0,0,0,2.61-2.61V8.61A2.61,2.61,0,0,0,43.763,6ZM20.011,47.763h-3l-1.566-9.919,2.741.783Zm21.142-7.83L7.221,29.883v-7.83l33.932-9.919Z" transform="translate(-1.998 -6)" fill="#f9f9f9"/>
          <path id="Path_21-3" data-name="Path 21" d="M40.615,17.134a1.958,1.958,0,0,0,1.175-.261l5.22-2.61a2.626,2.626,0,1,0-2.349-4.7l-5.22,2.61A2.61,2.61,0,0,0,38.266,15.7,2.741,2.741,0,0,0,40.615,17.134Z" transform="translate(8.981 -4.997)" fill="#f9f9f9"/>
          <path id="Path_22-3" data-name="Path 22" d="M47.01,30.273l-5.22-2.61a2.741,2.741,0,0,0-3.524,1.044,2.61,2.61,0,0,0,1.175,3.524l5.22,2.61a1.958,1.958,0,0,0,1.175.261,2.741,2.741,0,0,0,2.349-1.436,2.48,2.48,0,0,0-1.175-3.393Z" transform="translate(8.981 0.527)" fill="#f9f9f9"/>
          <path id="Path_23-3" data-name="Path 23" d="M40.61,24.52h5.22a2.61,2.61,0,0,0,0-5.22H40.61a2.61,2.61,0,0,0,0,5.22Z" transform="translate(8.986 -1.942)" fill="#f9f9f9"/>
        </g>
      </g>
    </g>
  </g>
</svg>
