<svg xmlns="http://www.w3.org/2000/svg" width="21" height="21" viewBox="0 0 21 21">
  <g id="Group_115" data-name="Group 115" transform="translate(-426 -6142)">
    <g id="Rectangle_51" data-name="Rectangle 51" transform="translate(426 6142)" fill="rgba(255,255,255,0)" stroke="#707070" stroke-width="1">
      <rect width="21" height="21" rx="5" stroke="none"/>
      <rect x="0.5" y="0.5" width="20" height="20" rx="4.5" fill="none"/>
    </g>
    <g id="Group_48" data-name="Group 48" transform="translate(431 6147)">
      <path id="Path_37" data-name="Path 37" d="M3.617.723v.723H6.51V.723a.723.723,0,0,1,1.447,0v.723H9.042a1.085,1.085,0,0,1,1.085,1.085V3.617H0V2.532A1.084,1.084,0,0,1,1.085,1.447H2.17V.723a.723.723,0,0,1,1.447,0ZM0,4.34H10.127v6.148a1.087,1.087,0,0,1-1.085,1.085H1.085A1.085,1.085,0,0,1,0,10.488ZM1.447,6.872a.361.361,0,0,0,.362.362h.723a.363.363,0,0,0,.362-.362V6.148a.363.363,0,0,0-.362-.362H1.808a.361.361,0,0,0-.362.362Zm2.893,0a.361.361,0,0,0,.362.362h.723a.361.361,0,0,0,.362-.362V6.148a.361.361,0,0,0-.362-.362H4.7a.361.361,0,0,0-.362.362ZM7.6,5.787a.361.361,0,0,0-.362.362v.723a.361.361,0,0,0,.362.362h.723a.361.361,0,0,0,.362-.362V6.148a.361.361,0,0,0-.362-.362ZM1.447,9.765a.361.361,0,0,0,.362.362h.723a.363.363,0,0,0,.362-.362V9.042a.363.363,0,0,0-.362-.362H1.808a.361.361,0,0,0-.362.362ZM4.7,8.68a.361.361,0,0,0-.362.362v.723a.361.361,0,0,0,.362.362h.723a.361.361,0,0,0,.362-.362V9.042a.361.361,0,0,0-.362-.362ZM7.233,9.765a.361.361,0,0,0,.362.362h.723a.361.361,0,0,0,.362-.362V9.042a.361.361,0,0,0-.362-.362H7.6a.361.361,0,0,0-.362.362Z" fill="#707070"/>
      <path id="Path_38" data-name="Path 38" d="M0,0H11.574V11.574H0Z" fill="none"/>
    </g>
  </g>
</svg>
