<svg xmlns="http://www.w3.org/2000/svg" xmlns:xlink="http://www.w3.org/1999/xlink" width="286" height="117" viewBox="0 0 286 117">
  <defs>
    <linearGradient id="linear-gradient" x1="0.044" y1="0.034" x2="1" y2="0.962" gradientUnits="objectBoundingBox">
      <stop offset="0" stop-color="#50d890"/>
      <stop offset="1" stop-color="#4f98ca"/>
    </linearGradient>
  </defs>
  <g id="Group_19" data-name="Group 19" transform="translate(-133 -2285)">
    <g id="Layer_2" data-name="Layer 2" transform="translate(217.328 2285)">
      <g id="invisible_box" data-name="invisible box">
        <rect id="Rectangle_31" data-name="Rectangle 31" width="117" height="117" transform="translate(-0.328)" fill="none"/>
      </g>
      <g id="Layer_6" data-name="Layer 6" transform="translate(6.391 4.915)">
        <g id="Group_14" data-name="Group 14">
          <path id="Path_16" data-name="Path 16" d="M23.7,31A14.5,14.5,0,0,1,35,26.821a18.677,18.677,0,0,1,12.779,5.406c7.127,6.881,8.355,17.694,2.457,23.838a5.161,5.161,0,0,0,0,7.127,5.9,5.9,0,0,0,3.44,1.229,4.424,4.424,0,0,0,3.441-1.475c7.864-8.11,8.6-20.151,3.195-30.227h1.72A14.991,14.991,0,0,0,73.1,28.049,15.482,15.482,0,0,0,72.6,6.178,15.974,15.974,0,0,0,62.037,2a16.219,16.219,0,0,0-11.3,4.669A15.482,15.482,0,0,0,46.8,19.694a27.524,27.524,0,0,0-11.55-2.7,23.346,23.346,0,0,0-18.677,7.372A4.915,4.915,0,1,0,23.7,31ZM57.86,13.55a5.9,5.9,0,0,1,4.178-1.72,5.489,5.489,0,0,1,3.932,9.338,4.669,4.669,0,0,1-3.932,1.72,5.652,5.652,0,0,1-3.932-1.474,5.406,5.406,0,0,1-.246-7.864Z" transform="translate(15.127 -2)" fill="url(#linear-gradient)"/>
          <path id="Path_17" data-name="Path 17" d="M48.8,65.421c-8.355-2.212-13.27-11.8-10.813-21.38S49.046,27.821,57.4,30.033a4.915,4.915,0,0,0,5.9-3.686,4.669,4.669,0,0,0-3.44-5.9,25.558,25.558,0,0,0-27.77,12.533,15.482,15.482,0,0,0-10.567-8.847l-3.44-.492A15.482,15.482,0,0,0,3.091,35.44,15.236,15.236,0,0,0,14.4,54.116l3.686.491a15.236,15.236,0,0,0,9.584-3.44A25.8,25.8,0,0,0,46.589,75.005h.983a4.915,4.915,0,0,0,4.915-3.686,4.669,4.669,0,0,0-3.686-5.9ZM23.488,40.354a5.652,5.652,0,0,1-5.406,4.423H16.607a5.608,5.608,0,0,1,1.475-11.059H19.31a5.161,5.161,0,0,1,3.44,2.457A6.144,6.144,0,0,1,23.488,40.354Z" transform="translate(-2.6 24.032)" fill="url(#linear-gradient)"/>
          <path id="Path_18" data-name="Path 18" d="M65.981,52.822a29.244,29.244,0,0,0,8.11-8.355,24.083,24.083,0,0,0,2.949-19.906,4.863,4.863,0,1,0-9.338,2.7,13.762,13.762,0,0,1-1.966,11.8,20.151,20.151,0,0,1-11.059,8.355c-9.584,2.949-19.414-1.72-21.872-9.83a4.979,4.979,0,1,0-9.584,2.7A25.8,25.8,0,0,0,48.041,57.983,15.482,15.482,0,0,0,60.328,82.557a14.008,14.008,0,0,0,4.423-.737,15.482,15.482,0,0,0,1.229-29Zm-3.932,19.66h-1.72A5.9,5.9,0,0,1,54.922,68.8a6.144,6.144,0,0,1,3.932-7.127h1.474a5.652,5.652,0,0,1,5.407,4.178,5.407,5.407,0,0,1-3.686,6.635Z" transform="translate(27.157 25.572)" fill="url(#linear-gradient)"/>
        </g>
      </g>
    </g>
    <g id="Layer_2-2" data-name="Layer 2" transform="translate(133 2315.026)">
      <g id="invisible_box-2" data-name="invisible box">
        <rect id="Rectangle_31-2" data-name="Rectangle 31" width="57" height="58" transform="translate(0 -0.026)" fill="none"/>
      </g>
      <g id="Layer_6-2" data-name="Layer 6" transform="translate(3.128 2.406)">
        <g id="Group_14-2" data-name="Group 14">
          <path id="Path_16-2" data-name="Path 16" d="M19.138,16.194a7.1,7.1,0,0,1,5.533-2.045,9.142,9.142,0,0,1,6.255,2.646c3.488,3.368,4.09,8.66,1.2,11.668a2.526,2.526,0,0,0,0,3.488,2.887,2.887,0,0,0,1.684.6A2.165,2.165,0,0,0,35.5,31.83c3.849-3.969,4.21-9.863,1.564-14.795H37.9a7.337,7.337,0,0,0,5.413-2.285,7.578,7.578,0,0,0-.241-10.705A7.818,7.818,0,0,0,37.9,2a7.939,7.939,0,0,0-5.533,2.285,7.578,7.578,0,0,0-1.925,6.375,13.472,13.472,0,0,0-5.653-1.323,11.427,11.427,0,0,0-9.142,3.609,2.406,2.406,0,1,0,3.488,3.248Zm16.719-8.54A2.887,2.887,0,0,1,37.9,6.811a2.687,2.687,0,0,1,1.925,4.571,2.285,2.285,0,0,1-1.925.842,2.767,2.767,0,0,1-1.925-.722,2.646,2.646,0,0,1-.12-3.849Z" transform="translate(-0.133 -2)" fill="#f9f9f9"/>
          <path id="Path_17-2" data-name="Path 17" d="M25.213,42.16c-4.09-1.083-6.5-5.774-5.292-10.465s5.413-7.939,9.5-6.856a2.406,2.406,0,0,0,2.887-1.8,2.285,2.285,0,0,0-1.684-2.887,12.51,12.51,0,0,0-13.592,6.134,7.578,7.578,0,0,0-5.172-4.33l-1.684-.241A7.578,7.578,0,0,0,2.84,27.486a7.458,7.458,0,0,0,5.533,9.142l1.8.241a7.458,7.458,0,0,0,4.691-1.684,12.63,12.63,0,0,0,9.262,11.668h.481a2.406,2.406,0,0,0,2.406-1.8,2.285,2.285,0,0,0-1.8-2.887ZM12.824,29.892a2.767,2.767,0,0,1-2.646,2.165H9.456a2.745,2.745,0,0,1,.722-5.413h.6a2.526,2.526,0,0,1,1.684,1.2A3.007,3.007,0,0,1,12.824,29.892Z" transform="translate(-2.6 1.623)" fill="#f9f9f9"/>
          <path id="Path_18-2" data-name="Path 18" d="M44.046,36.533a14.314,14.314,0,0,0,3.969-4.09A11.788,11.788,0,0,0,49.459,22.7a2.38,2.38,0,1,0-4.571,1.323,6.736,6.736,0,0,1-.962,5.774,9.863,9.863,0,0,1-5.413,4.09c-4.691,1.443-9.5-.842-10.705-4.811A2.437,2.437,0,1,0,23.117,30.4a12.63,12.63,0,0,0,12.149,8.66A7.578,7.578,0,0,0,41.28,51.088a6.856,6.856,0,0,0,2.165-.361,7.578,7.578,0,0,0,.6-14.194Zm-1.925,9.623H41.28a2.887,2.887,0,0,1-2.646-1.8,3.007,3.007,0,0,1,1.925-3.488h.722a2.767,2.767,0,0,1,2.646,2.045,2.646,2.646,0,0,1-1.8,3.248Z" transform="translate(1.541 1.837)" fill="#f9f9f9"/>
        </g>
      </g>
    </g>
    <g id="Layer_2-3" data-name="Layer 2" transform="translate(361.07 2315.026)">
      <g id="invisible_box-3" data-name="invisible box">
        <rect id="Rectangle_31-3" data-name="Rectangle 31" width="58" height="58" transform="translate(-0.07 -0.026)" fill="none"/>
      </g>
      <g id="Layer_6-3" data-name="Layer 6" transform="translate(3.128 2.406)">
        <g id="Group_14-3" data-name="Group 14">
          <path id="Path_16-3" data-name="Path 16" d="M19.138,16.194a7.1,7.1,0,0,1,5.533-2.045,9.142,9.142,0,0,1,6.255,2.646c3.488,3.368,4.09,8.66,1.2,11.668a2.526,2.526,0,0,0,0,3.488,2.887,2.887,0,0,0,1.684.6A2.165,2.165,0,0,0,35.5,31.83c3.849-3.969,4.21-9.863,1.564-14.795H37.9a7.337,7.337,0,0,0,5.413-2.285,7.578,7.578,0,0,0-.241-10.705A7.818,7.818,0,0,0,37.9,2a7.939,7.939,0,0,0-5.533,2.285,7.578,7.578,0,0,0-1.925,6.375,13.472,13.472,0,0,0-5.653-1.323,11.427,11.427,0,0,0-9.142,3.609,2.406,2.406,0,1,0,3.488,3.248Zm16.719-8.54A2.887,2.887,0,0,1,37.9,6.811a2.687,2.687,0,0,1,1.925,4.571,2.285,2.285,0,0,1-1.925.842,2.767,2.767,0,0,1-1.925-.722,2.646,2.646,0,0,1-.12-3.849Z" transform="translate(-0.133 -2)" fill="#f9f9f9"/>
          <path id="Path_17-3" data-name="Path 17" d="M25.213,42.16c-4.09-1.083-6.5-5.774-5.292-10.465s5.413-7.939,9.5-6.856a2.406,2.406,0,0,0,2.887-1.8,2.285,2.285,0,0,0-1.684-2.887,12.51,12.51,0,0,0-13.592,6.134,7.578,7.578,0,0,0-5.172-4.33l-1.684-.241A7.578,7.578,0,0,0,2.84,27.486a7.458,7.458,0,0,0,5.533,9.142l1.8.241a7.458,7.458,0,0,0,4.691-1.684,12.63,12.63,0,0,0,9.262,11.668h.481a2.406,2.406,0,0,0,2.406-1.8,2.285,2.285,0,0,0-1.8-2.887ZM12.824,29.892a2.767,2.767,0,0,1-2.646,2.165H9.456a2.745,2.745,0,0,1,.722-5.413h.6a2.526,2.526,0,0,1,1.684,1.2A3.007,3.007,0,0,1,12.824,29.892Z" transform="translate(-2.6 1.623)" fill="#f9f9f9"/>
          <path id="Path_18-3" data-name="Path 18" d="M44.046,36.533a14.314,14.314,0,0,0,3.969-4.09A11.788,11.788,0,0,0,49.459,22.7a2.38,2.38,0,1,0-4.571,1.323,6.736,6.736,0,0,1-.962,5.774,9.863,9.863,0,0,1-5.413,4.09c-4.691,1.443-9.5-.842-10.705-4.811A2.437,2.437,0,1,0,23.117,30.4a12.63,12.63,0,0,0,12.149,8.66A7.578,7.578,0,0,0,41.28,51.088a6.856,6.856,0,0,0,2.165-.361,7.578,7.578,0,0,0,.6-14.194Zm-1.925,9.623H41.28a2.887,2.887,0,0,1-2.646-1.8,3.007,3.007,0,0,1,1.925-3.488h.722a2.767,2.767,0,0,1,2.646,2.045,2.646,2.646,0,0,1-1.8,3.248Z" transform="translate(1.541 1.837)" fill="#f9f9f9"/>
        </g>
      </g>
    </g>
  </g>
</svg>
